<?xml version="1.0" encoding="UTF-8" standalone="no"?>
<svg
   width="200"
   height="169"
   viewBox="0 0 200 169"
   version="1.1"
   id="svg5"
   sodipodi:docname="emacs.svg"
   inkscape:version="1.4.2 (ebf0e940d0, 2025-05-08)"
   xmlns:inkscape="http://www.inkscape.org/namespaces/inkscape"
   xmlns:sodipodi="http://sodipodi.sourceforge.net/DTD/sodipodi-0.dtd"
   xmlns="http://www.w3.org/2000/svg"
   xmlns:svg="http://www.w3.org/2000/svg">
  <defs
     id="defs5" />
  <sodipodi:namedview
     id="namedview5"
     pagecolor="#ffffff"
     bordercolor="#000000"
     borderopacity="0.25"
     inkscape:showpageshadow="2"
     inkscape:pageopacity="0.0"
     inkscape:pagecheckerboard="0"
     inkscape:deskcolor="#d1d1d1"
     inkscape:zoom="5.6982249"
     inkscape:cx="100.55763"
     inkscape:cy="91.870717"
     inkscape:window-width="2194"
     inkscape:window-height="1172"
     inkscape:window-x="0"
     inkscape:window-y="0"
     inkscape:window-maximized="1"
     inkscape:current-layer="svg5" />
  <path
     d="M 76.330 42.250 C 73.493 45.414, 71 49.260, 71.001 50.473 C 71.002 51.038, 72.180 52.850, 73.619 54.500 C 78.058 59.590, 80 65.397, 80 73.583 C 80 77.662, 80.432 81, 80.961 81 C 84.888 81, 89.741 66.610, 88.663 58.163 C 87.695 50.578, 86.127 46.348, 83.074 43.079 C 79.639 39.402, 78.960 39.318, 76.330 42.250"
     stroke="none"
     fill="#fecd83"
     fill-rule="evenodd"
     id="path1" />
  <path
     id="path2"
     d="m 130.2207,74.048828 c -0.77041,0.03112 -2.04731,1.31425 -3.53906,3.701172 -1.29,2.063 -3.79822,6.414875 -5.57422,9.671875 -4.667,8.561 -10.20873,16.680015 -11.80273,17.291015 -0.758,0.291 -2.18492,-0.1998 -3.16992,-1.0918 C 105.14977,102.73009 103.8092,102 103.1582,102 88.877237,104.47862 78.077134,128.84301 85.066406,141.54102 87.279394,142.9057 93.512151,123.17453 99.154297,117 c 0.619,0 1.668083,0.74048 2.330083,1.64648 2.385,3.262 5.96676,0.90233 11.21874,-7.38867 C 118.62014,101.91781 131,77.770314 131,75.570312 c 0,-1.047264 -0.28544,-1.541432 -0.7793,-1.521484 z"
     sodipodi:nodetypes="sccccscsccss"
     style="fill:#c8a9fe;fill-opacity:1" />
  <path
     d="M 143.560 26.322 C 139.621 32.145, 135.853 35, 132.109 35 C 131.014 35, 129.841 34.552, 129.503 34.005 C 129.165 33.458, 128.021 32.546, 126.960 31.978 C 125.264 31.071, 124.726 31.578, 122.515 36.160 C 119.416 42.585, 119.342 45.426, 122.223 47.443 C 126.752 50.616, 132.250 48.786, 138.296 42.094 C 143.050 36.832, 148.203 26.576, 147.808 23.163 C 147.520 20.682, 147.229 20.899, 143.560 26.322"
     stroke="none"
     fill="#cafe8e"
     fill-rule="evenodd"
     id="path3" />
  <path
     d="M 37.456 12.982 C 29.365 21.199, 24.236 24.539, 21.224 23.555 C 20.276 23.245, 18.483 21.418, 17.241 19.496 C 15.998 17.573, 14.619 16, 14.175 16 C 13.153 16, 9 25.926, 9 28.369 C 9 30.763, 15.273 37.006, 17.650 36.978 C 21.720 36.930, 27.892 32.821, 35.477 25.110 C 39.864 20.649, 44.190 17, 45.090 17 C 46.472 17, 51.622 22.021, 56.810 28.427 C 58.454 30.457, 59.523 29.807, 61.543 25.550 C 63.429 21.576, 67.616 19.537, 71.941 20.487 C 73.886 20.914, 78.915 24.771, 85.640 30.992 C 98.575 42.958, 103.320 45.710, 108.228 44.090 C 112.541 42.666, 117.063 37.866, 119.842 31.761 C 121.891 27.261, 122.664 23, 121.433 23 C 121.121 23, 119.409 24.544, 117.629 26.432 C 113.805 30.487, 110.036 31.672, 106.119 30.049 C 104.557 29.402, 98.826 24.470, 93.384 19.089 C 83.681 9.493, 79.496 6.428, 75.500 5.989 C 71.069 5.503, 69.182 6.153, 65.250 9.518 L 61.139 13.037 59.625 10.874 C 57.214 7.433, 52.796 5.014, 48.908 5.007 C 45.738 5.001, 44.392 5.938, 37.456 12.982"
     stroke="none"
     fill="#98b2fc"
     fill-rule="evenodd"
     id="path4" />
  <g
     id="g14"
     style="fill:#fc7e88;fill-opacity:1">
    <g
       id="g5"
       style="fill:#fc7e88;fill-opacity:1;stroke:none">
      <path
         id="path5"
         d="m 165.41602,0.07617187 c -1.88683,0.07581741 -3.59219,0.38046882 -4.53907,0.93359373 -1.764,1.031 -8.73342,12.4606404 -10.85742,17.8066404 -1.143,2.877 -1.10222,3.527641 0.30078,4.931641 1.49,1.49 1.7728,1.476078 3.5918,-0.169922 1.086,-0.982 2.27648,-3.200641 2.64648,-4.931641 0.369,-1.73 1.12569,-3.708484 1.67969,-4.396484 1.734,-2.153 5.77789,-1.386172 8.83789,1.673828 2.752,2.752 2.92383,3.399641 2.92383,11.056641 0,10.246 -0.9253,14.587531 -10.0293,47.019531 -6.093,21.707 -8.44955,32.46948 -9.39258,42.89648 L 150,123.29297 l 2.40625,-2.59766 c 2.304,-2.486 3.89053,-7.70187 5.14453,-16.92187 1.568,-11.527011 4.52094,-23.43869 9.96094,-40.17969 6.154,-18.937 9.02301,-30.307672 10.54101,-41.763672 1.156,-8.729 1.11125,-10.113953 -0.46875,-14.251953 -0.963,-2.52 -2.71362,-5.2560781 -3.89062,-6.0800781 -1.187,-0.83100009 -3.75969,-1.32300002 -6.35156,-1.42187503 -0.64797,-0.02471875 -1.29684,-0.02527245 -1.92578,0 z M 54.1875,28 c -0.447,0 -1.967859,1.238 -3.380859,2.75 -4.127,4.42 -18.744766,26.863031 -21.384766,32.832031 -3.014,6.815 -3.066219,9.854328 -0.199219,11.861328 3.138,2.198 6.616516,1.938079 12.353516,-0.919921 11.281,-5.622 33.361,-28.523438 27.5,-28.523438 -0.84,0 -5.598438,3.607141 -8.898438,6.744141 -3.367,3.201 -13.994265,10.172109 -16.447265,10.787109 C 40.105469,64.44125 36,63.334266 36,61.447266 c 0,-2.586 4.534969,-10.527 11.917969,-20.875 C 54.516969,31.323266 56.1735,28 54.1875,28 Z m 29.775391,62.974609 c -0.881002,-0.01259 -3.045719,2.508282 -5.980469,7.21875 -4.513,7.243001 -7.384656,11.277551 -20.597656,28.935551 -13.257,17.716 -19.338125,27.38503 -21.828125,34.70703 -3.113,9.153 -1.20886,9.80706 4.11914,1.41406 14.021488,-23.40951 34.86546,-43.01818 44.263672,-69.037129 0.625391,-2.180469 0.588176,-3.230211 0.02344,-3.238282 z"
         sodipodi:nodetypes="sccccccssccccccccssssccccsccscsscccccss"
         style="stroke:none;stroke-opacity:1;fill:#fc7e88;fill-opacity:1" />
    </g>
  </g>
  <path
     style="fill:#009ddc;fill-rule:evenodd;stroke-width:11.784"
     d="m 61.071651,133.28712 -4.343458,4.93575"
     id="path13" />
  <path
     style="fill:#009ddc;fill-rule:evenodd;stroke-width:11.784"
     id="path14"
     d="m 86.545832,187.8384 c -1.866841,0.54688 -3.733682,1.09376 -5.600523,1.64064 0,0 8.100173,5.65073 8.100173,5.65073 v 0 c 2.279233,-0.25915 4.558465,-0.5183 6.837698,-0.77746 z" />
</svg>
